#!OML:ASF I:\Actors\actors\Patient Classification 1\Patient 1\Session 1\Subject1.ASF
:FULLY-SPECIFIED
:DEGREES
1275
root 0.650389 17.5467 9.21932 11.0543 -17.2615 -7.35457
lowerback 3.08267 -4.27245 6.30035
upperback -7.93728 -5.1235 2.15255
thorax -10.5838 -2.91534 -0.546853
lowerneck -16.9783 2.59704 3.21539
upperneck 34.5408 2.64548 -0.387207
head 14.8888 1.39168 -0.28882
rclavicle -6.83322e-015 -3.02153e-014
rhumerus -76.3388 41.7311 -99.5527
rradius 120.475
rwrist -53.6019
rhand 17.6777 -80.693
rfingers 7.12502
rthumb 42.3659 -254.841
lclavicle -6.83322e-015 -3.02153e-014
lhumerus -55.7777 -51.6862 126.723
lradius 82.2813
lwrist 84.9826
lhand -41.1075 34.8096
lfingers 7.12502
lthumb -14.0352 64.3157
rfemur -10.3502 27.0967 21.4968
rtibia 5.42282
rfoot -8.01078 -13.8452
rtoes -4.03095
lfemur 369.098 -41.5674 -378.381
ltibia -4.67751
lfoot -401.31 417.595
ltoes 24.6032
1276
root 0.641313 17.5468 9.2132 11.1374 -17.098 -7.37131
lowerback 3.19292 -4.23927 6.34146
upperback -7.92617 -5.06853 2.12235
thorax -10.6414 -2.89311 -0.600252
lowerneck -16.921 2.63439 3.21968
upperneck 34.119 2.71838 -0.404675
head 14.6812 1.42469 -0.28501
rclavicle -9.35033e-014 2.56432e-014
rhumerus -76.2093 41.647 -99.7286
rradius 120.393
rwrist -53.4685
rhand 17.6472 -80.7119
rfingers 7.12502
rthumb 42.3373 -254.812
lclavicle -9.35033e-014 2.56432e-014
lhumerus -55.8201 -51.653 126.743
lradius 82.3148
lwrist 84.939
lhand -41.1552 35.0189
lfingers 7.12502
lthumb -14.0812 64.5219
rfemur -10.4227 27.0516 21.506
rtibia 5.37309
rfoot -8.00151 -13.9373
rtoes -4.10634
lfemur 368.821 -41.457 -378.086
ltibia -4.64752
lfoot -400.824 417.468
ltoes 24.3772
1277
root 0.633278 17.5447 9.20681 11.2296 -16.9708 -7.32979
lowerback 3.32999 -4.1862 6.33642
upperback -7.92898 -4.99031 2.06461
thorax -10.7267 -2.85785 -0.658296
lowerneck -16.9697 2.67554 3.22896
upperneck 33.828 2.78406 -0.405648
head 14.5601 1.4569 -0.275044
rclavicle -3.34207e-014 -7.95139e-015
rhumerus -76.1038 41.5971 -99.896
rradius 120.311
rwrist -53.455
rhand 17.5912 -80.5757
rfingers 7.12502
rthumb 42.2848 -254.93
lclavicle -3.34207e-014 -7.95139e-015
lhumerus -55.8144 -51.554 126.682
lradius 82.3196
lwrist 84.7932
lhand -41.0255 35.357
lfingers 7.12502
lthumb -13.9562 64.8686
rfemur -10.5588 26.9363 21.4221
rtibia 5.36289
rfoot -8.02437 -13.938
rtoes -4.01676
lfemur 368.617 -41.5722 -377.943
ltibia -4.64217
lfoot -400.835 417.443
ltoes 24.3977
1278
root 0.62849 17.5379 9.19664 11.5204 -17.0911 -7.40391
lowerback 3.37033 -4.03383 6.40526
upperback -7.92697 -4.77703 2.04265
thorax -10.7424 -2.76127 -0.746368
lowerneck -17.1704 2.7396 3.34084
upperneck 33.557 2.88984 -0.5324
head 14.4891 1.50158 -0.325269
rclavicle 7.10407e-014 1.07344e-014
rhumerus -75.7473 41.6402 -99.9168
rradius 120.178
rwrist -53.5556
rhand 17.46 -80.4515
rfingers 7.12502
rthumb 42.162 -255.013
lclavicle 7.10407e-014 1.07344e-014
lhumerus -55.7798 -51.5446 126.627
lradius 82.2571
lwrist 84.7105
lhand -41.1888 34.8493
lfingers 7.12502
lthumb -14.1135 64.35
rfemur -11.0436 26.7204 21.3301
rtibia 5.51375
rfoot -8.04058 -13.5744
rtoes -3.98413
lfemur 368.338 -41.8559 -377.702
ltibia -4.66402
lfoot -401.609 417.62
ltoes 24.8326
1279
root 0.628716 17.5245 9.17877 12.1689 -17.6792 -7.62416
lowerback 3.26239 -3.7054 6.52432
upperback -8.00773 -4.3294 2.05652
thorax -10.7453 -2.55653 -0.862839
lowerneck -17.2886 2.86697 3.32221
upperneck 33.2766 3.02107 -0.340899
head 14.3877 1.58577 -0.219453
rclavicle 6.53008e-014 -4.47266e-014
rhumerus -75.3016 41.74 -99.9998
rradius 119.985
rwrist -53.6205
rhand 17.3594 -80.506
rfingers 7.12502
rthumb 42.0677 -254.927
lclavicle 6.53008e-014 -4.47266e-014
lhumerus -55.4711 -51.3543 126.224
lradius 82.1702
lwrist 83.9607
lhand -40.6543 37.0761
lfingers 7.12502
lthumb -13.5985 66.612
rfemur -12.2078 26.175 21.1584
rtibia 6.00252
rfoot -8.03852 -12.3959
rtoes -4.4934
lfemur 367.73 -42.0681 -377.195
ltibia -4.6696
lfoot -403.253 417.918
ltoes 25.7787
1280
root 0.621239 17.5254 9.1804 12.4239 -17.4089 -7.88838
lowerback 3.20158 -3.69397 6.88148
upperback -7.94412 -4.28827 2.08408
thorax -10.6667 -2.5615 -1.04218
lowerneck -17.3894 3.04282 3.06557
upperneck 33.0685 3.15473 0.269779
head 14.301 1.69981 0.0973805
rclavicle -1.04635e-013 3.35946e-014
rhumerus -74.8873 41.9163 -100.26
rradius 119.747
rwrist -53.6756
rhand 17.3785 -80.504
rfingers 7.12502
rthumb 42.0855 -254.935
lclavicle -1.04635e-013 3.35946e-014
lhumerus -55.2561 -51.0966 125.834
lradius 82.15
lwrist 83.5315
lhand -40.247 38.1521
lfingers 7.12502
lthumb -13.2059 67.7138
rfemur -12.3227 26.0022 21.4462
rtibia 5.95683
rfoot -8.08069 -12.4096
rtoes -4.64562
lfemur 367.297 -41.7587 -376.493
ltibia -4.6893
lfoot -402.342 417.7
ltoes 25.2892
1281
root 0.61304 17.5273 9.19016 12.8033 -17.0241 -8.41383
lowerback 2.95536 -3.68202 7.58006
upperback -7.83925 -4.23498 2.15618
thorax -10.4593 -2.58232 -1.37729
lowerneck -17.6111 3.12611 2.95698
upperneck 32.7692 3.22056 0.539578
head 14.2091 1.75566 0.238354
rclavicle -4.04527e-014 -2.36554e-014
rhumerus -74.3725 42.1384 -100.535
rradius 119.498
rwrist -53.756
rhand 17.4146 -80.4056
rfingers 7.12502
rthumb 42.1194 -255.045
lclavicle -4.04527e-014 -2.36554e-014
lhumerus -55.0042 -50.8759 125.39
lradius 82.1347
lwrist 83.3418
lhand -39.9614 38.6376
lfingers 7.12502
lthumb -12.9306 68.217
rfemur -12.385 25.7542 22.0596
rtibia 5.83558
rfoot -8.11819 -12.397
rtoes -4.70556
lfemur 366.851 -41.4757 -375.497
ltibia -4.72254
lfoot -401.472 417.452
ltoes 24.8721
1282
root 0.603831 17.5298 9.19028 12.9848 -16.7632 -8.71314
lowerback 3.00846 -3.6244 7.93877
upperback -7.71431 -4.12613 2.16686
thorax -10.3746 -2.55143 -1.58014
lowerneck -17.7965 3.13519 3.06231
upperneck 32.3215 3.23991 0.43226
head 14.0565 1.76571 0.179563
rclavicle -9.96408e-015 -1.63003e-014
rhumerus -73.7399 42.4023 -100.782
rradius 119.187
rwrist -53.8139
rhand 17.4071 -80.5694
rfingers 7.12502
rthumb 42.1124 -254.878
lclavicle -9.96408e-015 -1.63003e-014
lhumerus -54.7247 -50.7201 124.924
lradius 82.1043
lwrist 83.2362
lhand -39.5692 39.1565
lfingers 7.12502
lthumb -12.5524 68.7594
rfemur -12.4117 25.5996 22.435
rtibia 5.79009
rfoot -8.14592 -12.3989
rtoes -4.65264
lfemur 366.563 -41.2578 -374.869
ltibia -4.72666
lfoot -400.795 417.264
ltoes 24.6083
1283
root 0.595535 17.5311 9.18116 13.0358 -16.6557 -8.76524
lowerback 3.33719 -3.55305 7.97924
upperback -7.61921 -4.00011 2.11195
thorax -10.4606 -2.49366 -1.66152
lowerneck -17.9028 3.18059 3.17638
upperneck 31.8501 3.29495 0.37164
head 13.8779 1.79856 0.142936
rclavicle 2.49972e-014 7.95139e-016
rhumerus -73.0233 42.7383 -101.135
rradius 118.723
rwrist -53.8621
rhand 17.3459 -80.7817
rfingers 7.12502
rthumb 42.0551 -254.647
lclavicle 2.49972e-014 7.95139e-016
lhumerus -54.5317 -50.582 124.474
lradius 82.0445
lwrist 83.3597
lhand -39.4023 38.6404
lfingers 7.12502
lthumb -12.3915 68.2531
rfemur -12.472 25.5656 22.5
rtibia 5.78579
rfoot -8.17357 -12.4388
rtoes -4.39367
lfemur 366.347 -41.1009 -374.573
ltibia -4.72513
lfoot -400.373 417.156
ltoes 24.424
1284
root 0.585959 17.5466 9.18156 12.2413 -15.453 -8.19053
lowerback 4.11205 -3.9409 7.69769
upperback -7.35312 -4.49586 1.9003
thorax -10.6664 -2.7139 -1.62231
lowerneck -18.0611 3.23077 3.29571
upperneck 31.4079 3.342 0.338906
head 13.7249 1.83172 0.116567
rclavicle 2.36554e-014 1.98785e-014
rhumerus -72.2575 43.1358 -101.616
rradius 118.177
rwrist -53.927
rhand 17.1778 -80.925
rfingers 7.12502
rthumb 41.8975 -254.451
lclavicle 2.36554e-014 1.98785e-014
lhumerus -54.811 -50.6276 124.413
lradius 81.9519
lwrist 83.869
lhand -39.9703 34.1922
lfingers 7.12502
lthumb -12.9392 63.771
rfemur -11.1823 26.1571 22.304
rtibia 5.04903
rfoot -8.21365 -14.3543
rtoes -3.44007
lfemur 366.36 -40.7042 -374.871
ltibia -4.52241
lfoot -397.3 416.342
ltoes 22.5869
1285
root 0.587709 17.5416 9.1463 11.9513 -15.567 -7.29616
lowerback 4.99314 -3.85599 6.73218
upperback -7.30546 -4.42098 1.59612
thorax -11.0644 -2.61783 -1.37174
lowerneck -18.3173 3.25688 3.43256
upperneck 31.0092 3.33702 0.323066
head 13.6127 1.84604 0.0873441
rclavicle -2.28602e-014 -9.14409e-015
rhumerus -71.3727 43.5144 -102.057
rradius 117.597
rwrist -54.0222
rhand 16.9745 -81.0373
rfingers 7.12502
rthumb 41.7069 -254.275
lclavicle -2.28602e-014 -9.14409e-015
lhumerus -55.2331 -50.7899 124.296
lradius 81.9454
lwrist 83.8332
lhand -40.1064 30.1721
lfingers 7.12502
lthumb -13.0703 59.7426
rfemur -11.4718 26.3104 21.1341
rtibia 5.19222
rfoot -8.23695 -14.6092
rtoes -3.12425
lfemur 365.967 -40.8048 -375.655
ltibia -4.15419
lfoot -397.634 416.174
ltoes 23.0894
